<svg width="1427" height="313" viewBox="0 0 1427 313" fill="none" xmlns="http://www.w3.org/2000/svg">
<path d="M214.75 45.5H143.5V60.3333V75.1667H214.75H286H357.25H428.5H499.75H571H642.25H713.5H784.75H856H927.25H998.5H1069.75H1141H1212.25H1283.5V60.3333V45.5H1212.25H1141H1069.75H998.5H927.25H856H784.75H642.25H571H499.75H428.5H357.25H286H214.75Z" fill="#020617"/>
<path d="M214.75 75.1667H143.5V90V104.833H214.75H286H357.25H428.5H499.75H571H642.25H713.5H784.75H856H927.25H998.5H1069.75H1141H1212.25H1283.5V90V75.1667H1212.25H1141H1069.75H998.5H927.25H856H784.75H713.5H642.25H571H499.75H428.5H357.25H286H214.75Z" fill="#020617"/>
<path d="M214.75 104.833H143.5V119.667V134.5H214.75H286H357.25H428.5H499.75H571H642.25H713.5H784.75H856H927.25H998.5H1069.75H1141H1212.25H1283.5V119.667V104.833H1212.25H1141H1069.75H998.5H927.25H856H784.75H713.5H642.25H571H499.75H428.5H357.25H286H214.75Z" fill="#020617"/>
<path d="M214.75 134.5H143.5V149.333H214.75V134.5Z" fill="#020617"/>
<path d="M214.75 149.333H143.5V164.167H214.75V149.333Z" fill="#020617"/>
<path d="M286 134.5H214.75V149.333V164.167H286H357.25V149.333V134.5H286Z" fill="#020617"/>
<path d="M428.5 134.5H357.25V149.333H428.5V134.5Z" fill="#020617"/>
<path d="M428.5 149.333H357.25V164.167H428.5V149.333Z" fill="#020617"/>
<path d="M499.75 134.5H428.5V149.333H499.75V134.5Z" fill="#020617"/>
<path d="M499.75 149.333H428.5V164.167H499.75V149.333Z" fill="#020617"/>
<path d="M571 134.5H499.75V149.333H571V134.5Z" fill="#020617"/>
<path d="M571 149.333H499.75V164.167H571V149.333Z" fill="#020617"/>
<path d="M642.25 134.5H571V149.333H642.25V134.5Z" fill="#020617"/>
<path d="M642.25 149.333H571V164.167H642.25V149.333Z" fill="#020617"/>
<path d="M713.5 149.333H642.25V164.167H713.5V149.333Z" fill="#020617"/>
<path d="M713.5 134.5H642.25V149.333H713.5V134.5Z" fill="#020617"/>
<path d="M784.75 134.5H713.5V149.333H784.75V134.5Z" fill="#020617"/>
<path d="M784.75 149.333H713.5V164.167H784.75V149.333Z" fill="#020617"/>
<path d="M856 149.333H784.75V164.167H856V149.333Z" fill="#020617"/>
<path d="M856 134.5H784.75V149.333H856V134.5Z" fill="#020617"/>
<path d="M927.25 134.5H856V149.333H927.25V134.5Z" fill="#020617"/>
<path d="M927.25 149.333H856V164.167H927.25V149.333Z" fill="#020617"/>
<path d="M998.5 134.5H927.25V149.333H998.5V134.5Z" fill="#020617"/>
<path d="M998.5 149.333H927.25V164.167H998.5V149.333Z" fill="#020617"/>
<path d="M1069.75 149.333H998.5V164.167H1069.75V149.333Z" fill="#020617"/>
<path d="M1069.75 134.5H998.5V149.333H1069.75V134.5Z" fill="#020617"/>
<path d="M1141 134.5H1069.75V149.333H1141V134.5Z" fill="#020617"/>
<path d="M1141 149.333H1069.75V164.167H1141V149.333Z" fill="#020617"/>
<path d="M1212.25 149.333H1141V164.167H1212.25V149.333Z" fill="#020617"/>
<path d="M1212.25 134.5H1141V149.333H1212.25V134.5Z" fill="#020617"/>
<path d="M1283.5 134.5H1212.25V149.333H1283.5V134.5Z" fill="#020617"/>
<path d="M1283.5 149.333H1212.25V164.167H1283.5V149.333Z" fill="#020617"/>
<path d="M214.75 164.167H143.5V179V193.833H214.75H357.25H428.5H499.75H571H642.25H713.5H784.75H856H927.25H998.5H1069.75H1141H1212.25H1283.5V179V164.167H1212.25H1141H1069.75H998.5H927.25H856H784.75H713.5H642.25H571H499.75H428.5H357.25H286H214.75Z" fill="#020617"/>
<path d="M214.75 193.833H143.5V208.667V223.5H214.75H286H357.25H428.5H499.75H571H642.25H713.5H784.75H856H927.25H998.5H1069.75H1141H1212.25H1283.5V208.667V193.833H1212.25H1141H1069.75H998.5H927.25H856H784.75H713.5H642.25H571H499.75H428.5H357.25H214.75Z" fill="#020617"/>
<path d="M214.75 223.5H143.5V238.333V253.167H1283.5V238.333V223.5H1212.25H1141H1069.75H998.5H927.25H856H784.75H713.5H642.25H571H499.75H428.5H357.25H286H214.75Z" fill="#020617"/>
<path d="M143.5 253.167V268V282.833H1283.5V268V253.167H143.5Z" fill="#020617"/>
<path d="M143.5 282.833V297.667V312.5H1283.5V297.667V282.833H143.5Z" fill="#020617"/>
<path d="M1 238.333V253.167V268L143.5 312.5V297.667V282.833L1 238.333Z" fill="#020617"/>
<path d="M1 208.667V223.5V238.333L143.5 282.833V268V253.167L1 208.667Z" fill="#020617"/>
<path d="M1 179V193.833V208.667L143.5 253.167V238.333V223.5L1 179Z" fill="#020617"/>
<path d="M1 149.333V164.167V179L143.5 223.5V208.667V193.833L1 149.333Z" fill="#020617"/>
<path d="M1 119.667V134.5V149.333L143.5 193.833V179V164.167L1 119.667Z" fill="#020617"/>
<path d="M1 90V104.833V119.667L143.5 164.167V149.333V134.5L1 90Z" fill="#020617"/>
<path d="M1 60.3333V75.1667V90L143.5 134.5V119.667V104.833L1 60.3333Z" fill="#020617"/>
<path d="M1 30.6667V45.5V60.3333L143.5 104.833V90V75.1667L1 30.6667Z" fill="#020617"/>
<path d="M1 1V15.8333V30.6667L143.5 75.1667V60.3333V45.5L1 1Z" fill="#020617"/>
<path d="M1283.5 45.5V60.3333V75.1667L1426 30.6667V15.8333V1L1283.5 45.5Z" fill="#020617"/>
<path d="M1283.5 75.1667V90V104.833L1426 60.3333V45.5V30.6667L1283.5 75.1667Z" fill="#020617"/>
<path d="M1283.5 104.833V119.667V134.5L1426 90V75.1667V60.3333L1283.5 104.833Z" fill="#020617"/>
<path d="M1283.5 134.5V149.333V164.167L1426 119.667V104.833V90L1283.5 134.5Z" fill="#020617"/>
<path d="M1283.5 164.167V179V193.833L1426 149.333V134.5V119.667L1283.5 164.167Z" fill="#020617"/>
<path d="M1283.5 193.833V208.667V223.5L1426 179V164.167V149.333L1283.5 193.833Z" fill="#020617"/>
<path d="M1283.5 223.5V238.333V253.167L1426 208.667V193.833V179L1283.5 223.5Z" fill="#020617"/>
<path d="M1283.5 253.167V268V282.833L1426 238.333V223.5V208.667L1283.5 253.167Z" fill="#020617"/>
<path d="M1426 253.167V238.333L1283.5 282.833V297.667V312.5L1426 268V253.167Z" fill="#020617"/>
<path d="M1 30.6667V15.8333V1L143.5 45.5M1 30.6667V45.5V60.3333M1 30.6667L143.5 75.1667M143.5 45.5H214.75H286H357.25H428.5H499.75H571H642.25H784.75H856H927.25H998.5H1069.75H1141H1212.25H1283.5M143.5 45.5V60.3333V75.1667M1283.5 45.5V60.3333V75.1667M1283.5 45.5L1426 1V15.8333V30.6667M1 60.3333V75.1667V90M1 60.3333L143.5 104.833M143.5 75.1667H214.75H286H357.25H428.5H499.75H571H642.25H713.5H784.75H856H927.25H998.5H1069.75H1141H1212.25H1283.5M143.5 75.1667V90V104.833M1283.5 75.1667V90V104.833M1283.5 75.1667L1426 30.6667M1 90V104.833V119.667M1 90L143.5 134.5M143.5 104.833H214.75H286H357.25H428.5H499.75H571H642.25H713.5H784.75H856H927.25H998.5H1069.75H1141H1212.25H1283.5M143.5 104.833V119.667V134.5M1283.5 104.833V119.667V134.5M1283.5 104.833L1426 60.3333M1 119.667V134.5V149.333M1 119.667L143.5 164.167M143.5 134.5H214.75M143.5 134.5V149.333M214.75 134.5H286H357.25M214.75 134.5V149.333M357.25 134.5H428.5M357.25 134.5V149.333M428.5 134.5H499.75M428.5 134.5V149.333M499.75 134.5H571M499.75 134.5V149.333M571 134.5H642.25M571 134.5V149.333M642.25 134.5H713.5M642.25 134.5V149.333M713.5 134.5H784.75M713.5 134.5V149.333M784.75 134.5H856M784.75 134.5V149.333M856 134.5H927.25M856 134.5V149.333M927.25 134.5H998.5M927.25 134.5V149.333M998.5 134.5H1069.75M998.5 134.5V149.333M1069.75 134.5H1141M1069.75 134.5V149.333M1141 134.5H1212.25M1141 134.5V149.333M1212.25 134.5H1283.5M1212.25 134.5V149.333M1283.5 134.5V149.333M1283.5 134.5L1426 90M1 149.333V164.167V179M1 149.333L143.5 193.833M143.5 149.333H214.75M143.5 149.333V164.167M214.75 149.333V164.167M357.25 149.333H428.5M357.25 149.333V164.167M428.5 149.333H499.75M428.5 149.333V164.167M499.75 149.333H571M499.75 149.333V164.167M571 149.333H642.25M571 149.333V164.167M642.25 149.333H713.5M642.25 149.333V164.167M713.5 149.333H784.75M713.5 149.333V164.167M784.75 149.333H856M784.75 149.333V164.167M856 149.333H927.25M856 149.333V164.167M927.25 149.333H998.5M927.25 149.333V164.167M998.5 149.333H1069.75M998.5 149.333V164.167M1069.75 149.333H1141M1069.75 149.333V164.167M1141 149.333H1212.25M1141 149.333V164.167M1212.25 149.333H1283.5M1212.25 149.333V164.167M1283.5 149.333V164.167M143.5 164.167H214.75M143.5 164.167V179V193.833M214.75 164.167H286H357.25M357.25 164.167H428.5M428.5 164.167H499.75M499.75 164.167H571M571 164.167H642.25M642.25 164.167H713.5M713.5 164.167H784.75M784.75 164.167H856M856 164.167H927.25M927.25 164.167H998.5M998.5 164.167H1069.75M1069.75 164.167H1141M1141 164.167H1212.25M1212.25 164.167H1283.5M1283.5 164.167V179V193.833M1283.5 164.167L1426 119.667M1 179V193.833V208.667M1 179L143.5 223.5M143.5 193.833H214.75H357.25H428.5H499.75H571H642.25H713.5H784.75H856H927.25H998.5H1069.75H1141H1212.25H1283.5M143.5 193.833V208.667V223.5M1283.5 193.833V208.667V223.5M1283.5 193.833L1426 149.333M1 208.667V223.5V238.333M1 208.667L143.5 253.167M143.5 223.5H214.75H286H357.25H428.5H499.75H571H642.25H713.5H784.75H856H927.25H998.5H1069.75H1141H1212.25H1283.5M143.5 223.5V238.333V253.167M1283.5 223.5V238.333V253.167M1283.5 223.5L1426 179M1 238.333V253.167V268L143.5 312.5M1 238.333L143.5 282.833M143.5 253.167V268V282.833M143.5 253.167H1283.5M1283.5 253.167V268V282.833M1283.5 253.167L1426 208.667M143.5 282.833V297.667V312.5M143.5 282.833H1283.5M143.5 312.5H1283.5M1426 30.6667V45.5V60.3333M1426 60.3333V75.1667V90M1426 90V104.833V119.667M1426 119.667V134.5V149.333M1426 149.333V164.167V179M1426 179V193.833V208.667M1426 208.667V223.5V238.333M1426 238.333V253.167V268L1283.5 312.5M1426 238.333L1283.5 282.833M1283.5 282.833V297.667V312.5" stroke="#C5C3D1"/>
</svg>
